<svg width="327" height="61" viewBox="0 0 327 61" fill="none" xmlns="http://www.w3.org/2000/svg">
<path d="M52.731 14.6858H61.1056L77.2356 59.0064H69.3033L52.731 14.6858Z" fill="#F6F3FF"/>
<path d="M85.1679 58.977H77.2356L93.3656 14.6563H101.74L85.1679 58.977Z" fill="#F6F3FF"/>
<path d="M159.655 58.977V14.6858H167.351V25.7438C168.03 24.122 168.885 22.4117 169.917 20.9668C170.949 19.5513 172.128 18.2834 173.455 17.1628C174.782 16.0423 176.316 15.1576 178.056 14.5089C179.795 13.8601 181.712 13.5358 183.806 13.5358C186.725 13.5358 189.29 14.0076 191.502 14.9807C193.743 15.9538 195.601 17.2808 197.075 19.0206C198.55 20.7604 199.7 22.8245 200.466 25.2425C201.233 27.6606 201.616 30.5799 201.616 33.5287V58.977H193.655V34.3544C193.655 30.403 192.682 27.1593 190.735 24.6528C188.789 22.1463 185.693 20.8783 181.506 20.8783C179.265 20.8783 177.289 21.4091 175.549 22.5002C173.809 23.5912 172.364 24.9182 171.185 26.4811C170.005 28.0734 169.121 29.7247 168.531 31.4645C167.941 33.2043 167.646 34.7377 167.646 36.1237V58.977H159.655Z" fill="#F6F3FF"/>
<path d="M209.608 13.7422C212.026 13.7422 212.704 13.6242 214.119 12.2678C218.661 7.96252 219.191 3.06749 219.073 0.472534H226.357C226.475 3.45083 224.617 10.5575 216.98 13.7717H236.648V20.377H222.524V52.0472H238.506V59.0064H225.03C223.615 59.0064 222.258 58.8 220.99 58.3577C219.722 57.9154 218.602 57.2961 217.658 56.441C216.685 55.6153 215.948 54.5243 215.387 53.2268C214.827 51.9293 214.562 50.3369 214.562 48.4792V20.3475H206.099V13.7422H209.608Z" fill="#F6F3FF"/>
<path d="M146.798 52.7255V27.3067C146.798 24.6823 146.179 22.4707 144.94 20.7014C143.702 18.9321 142.08 17.4872 140.163 16.4256C138.217 15.364 136.094 14.6268 133.794 14.1845C131.494 13.7422 129.223 13.5358 127.041 13.5358C124.859 13.5358 122.5 13.8306 120.2 14.3909C117.9 14.9512 115.836 15.8358 114.007 17.0743C112.209 18.2834 110.705 19.8462 109.555 21.763C108.405 23.6797 107.815 25.9208 107.815 28.5747H115.01C115.423 25.3605 116.632 23.1784 118.637 21.9989C120.79 20.7604 123.532 20.1116 126.835 20.1116C128.014 20.1116 129.341 20.2001 130.786 20.4065C132.231 20.5834 133.587 20.9668 134.855 21.4976C136.123 22.0283 137.214 22.7655 138.04 23.7092C138.895 24.6528 139.308 25.9208 139.308 27.4542V30.3735L122.058 32.9979C120.052 33.2338 118.047 33.6761 116.013 34.2659C113.978 34.8557 112.15 35.7108 110.498 36.8019C108.847 37.893 107.49 39.2494 106.429 40.8713C105.367 42.4931 104.837 44.5278 104.837 46.9753C104.837 49.4228 105.367 51.369 106.37 53.0204C107.402 54.6717 108.729 56.0281 110.351 57.0897C111.973 58.1513 113.83 58.918 115.895 59.4193C117.959 59.9206 120.023 60.186 122.087 60.186C124.033 60.186 125.891 59.9206 127.719 59.3898C129.518 58.859 131.228 58.0923 132.791 57.0897C134.354 56.0871 135.711 54.8486 136.831 53.3742C137.952 51.8998 138.807 50.1895 139.367 48.2728V59.0359L146.857 59.0064L146.798 52.7255ZM137.745 46.0022C136.713 47.6535 135.386 49.01 133.764 50.0715C132.143 51.1331 130.314 51.8998 128.25 52.3716C126.186 52.8434 124.151 53.0793 122.146 53.0793C121.143 53.0793 120.111 52.9614 119.05 52.755C117.988 52.5485 117.015 52.1947 116.101 51.7229C115.187 51.2511 114.45 50.6023 113.83 49.8061C113.241 48.9805 112.946 48.0074 112.946 46.7984C112.946 45.5893 113.241 44.5573 113.801 43.6726C114.361 42.7585 115.069 41.9918 115.954 41.3136C116.838 40.6648 117.782 40.134 118.843 39.7802C119.905 39.3968 120.937 39.1315 121.94 38.925L139.279 36.0352V40.0751C139.279 42.3751 138.777 44.3508 137.745 46.0022Z" fill="#F6F3FF"/>
<path d="M306.093 14.6858V22.1168C307.39 20.1411 309.042 18.4013 311.076 16.9269C313.082 15.4525 315.116 14.6858 317.151 14.6858H327V21.8514H316.974C313.494 21.8514 310.899 23.2079 309.13 25.8913C307.361 28.5747 306.476 32.1722 306.476 36.6249V59.0064H298.485V14.6858H306.093Z" fill="#F6F3FF"/>
<path d="M285.599 52.7255V27.3067C285.599 24.6823 284.979 22.4707 283.741 20.7014C282.502 18.9321 280.881 17.4872 278.964 16.4256C277.018 15.364 274.895 14.6268 272.594 14.1845C270.294 13.7422 268.024 13.5358 265.842 13.5358C263.66 13.5358 261.3 13.8306 259 14.3909C256.7 14.9512 254.636 15.8358 252.808 17.0743C251.009 18.2834 249.505 19.8462 248.355 21.763C247.205 23.6797 246.615 25.9208 246.615 28.5747H253.81C254.223 25.3605 255.432 23.1784 257.438 21.9989C259.59 20.7604 262.333 20.1116 265.635 20.1116C266.815 20.1116 268.142 20.2001 269.587 20.4065C271.032 20.5834 272.388 20.9668 273.656 21.4976C274.924 22.0283 276.015 22.7655 276.841 23.7092C277.696 24.6528 278.109 25.9208 278.109 27.4542V30.3735L260.858 32.9979C258.853 33.2338 256.848 33.6761 254.813 34.2659C252.778 34.8557 250.95 35.7108 249.299 36.8019C247.647 37.893 246.291 39.2494 245.229 40.8713C244.168 42.4931 243.637 44.5278 243.637 46.9753C243.637 49.4228 244.168 51.369 245.17 53.0204C246.203 54.6717 247.53 56.0281 249.151 57.0897C250.773 58.1513 252.631 58.918 254.695 59.4193C256.759 59.9206 258.823 60.186 260.888 60.186C262.834 60.186 264.692 59.9206 266.52 59.3898C268.319 58.859 270.029 58.0923 271.592 57.0897C273.155 56.0871 274.511 54.8486 275.632 53.3742C276.752 51.8998 277.607 50.1895 278.168 48.2728V59.0359L285.658 59.0064L285.599 52.7255ZM276.575 46.0022C275.543 47.6535 274.216 49.01 272.594 50.0715C270.973 51.1331 269.144 51.8998 267.08 52.3716C265.016 52.8434 262.981 53.0793 260.976 53.0793C259.974 53.0793 258.941 52.9614 257.88 52.755C256.818 52.5485 255.845 52.1947 254.931 51.7229C254.017 51.2511 253.28 50.6023 252.66 49.8061C252.071 48.9805 251.776 48.0074 251.776 46.7984C251.776 45.5893 252.071 44.5573 252.631 43.6726C253.191 42.7585 253.899 41.9918 254.784 41.3136C255.668 40.6648 256.612 40.134 257.673 39.7802C258.735 39.3968 259.767 39.1315 260.77 38.925L278.109 36.0352V40.0751C278.109 42.3751 277.578 44.3508 276.575 46.0022Z" fill="#F6F3FF"/>
<path d="M40.6408 14.7743L35.333 0.67896L35.2445 0.443054H22.4172L8.02697 38.9545L7.58465 40.1046L0.595958 58.8295L0.536987 58.9475H9.177L10.7104 54.8486L11.4476 52.8729C11.8309 51.6049 12.0079 50.2485 12.0079 48.8625C12.0079 47.2997 11.7425 45.7663 11.2707 44.3803C10.8283 43.0239 10.1796 41.7559 9.35393 40.6059C12.6271 41.3431 15.7528 41.3136 15.7528 41.3136H41.7614L48.2488 58.9475H57.1542L40.6408 14.7743ZM18.3478 34.6493L28.8456 6.39965L37.2202 28.8991L39.3433 34.6198H18.3478V34.6493Z" fill="#F6F3FF"/>
</svg>
