<svg width="443" height="84" viewBox="0 0 443 84" fill="none" xmlns="http://www.w3.org/2000/svg">
<path d="M168.731 37.6858H177.106L193.236 82.0064H185.303L168.731 37.6858Z" fill="#F6F3FF"/>
<path d="M201.168 81.977H193.236L209.366 37.6563H217.74L201.168 81.977Z" fill="#F6F3FF"/>
<path d="M275.655 81.977V37.6858H283.351V48.7438C284.03 47.122 284.885 45.4117 285.917 43.9668C286.949 42.5513 288.128 41.2834 289.455 40.1628C290.782 39.0423 292.316 38.1576 294.056 37.5089C295.795 36.8601 297.712 36.5358 299.806 36.5358C302.725 36.5358 305.29 37.0076 307.502 37.9807C309.743 38.9538 311.601 40.2808 313.075 42.0206C314.55 43.7604 315.7 45.8245 316.466 48.2425C317.233 50.6606 317.616 53.5799 317.616 56.5287V81.977H309.655V57.3544C309.655 53.403 308.682 50.1593 306.735 47.6528C304.789 45.1463 301.693 43.8783 297.506 43.8783C295.265 43.8783 293.289 44.4091 291.549 45.5002C289.809 46.5912 288.364 47.9182 287.185 49.4811C286.005 51.0734 285.121 52.7247 284.531 54.4645C283.941 56.2043 283.646 57.7377 283.646 59.1237V81.977H275.655Z" fill="#F6F3FF"/>
<path d="M325.608 36.7422C328.026 36.7422 328.704 36.6242 330.119 35.2678C334.661 30.9625 335.191 26.0675 335.073 23.4725H342.357C342.475 26.4508 340.617 33.5575 332.98 36.7717H352.648V43.377H338.524V75.0472H354.506V82.0064H341.03C339.615 82.0064 338.258 81.8 336.99 81.3577C335.722 80.9154 334.602 80.2961 333.658 79.441C332.685 78.6153 331.948 77.5243 331.387 76.2268C330.827 74.9293 330.562 73.3369 330.562 71.4792V43.3475H322.099V36.7422H325.608Z" fill="#F6F3FF"/>
<path d="M262.798 75.7255V50.3067C262.798 47.6823 262.179 45.4707 260.94 43.7014C259.702 41.9321 258.08 40.4872 256.163 39.4256C254.217 38.364 252.094 37.6268 249.794 37.1845C247.494 36.7422 245.223 36.5358 243.041 36.5358C240.859 36.5358 238.5 36.8306 236.2 37.3909C233.9 37.9512 231.836 38.8358 230.007 40.0743C228.209 41.2834 226.705 42.8462 225.555 44.763C224.405 46.6797 223.815 48.9208 223.815 51.5747H231.01C231.423 48.3605 232.632 46.1784 234.637 44.9989C236.79 43.7604 239.532 43.1116 242.835 43.1116C244.014 43.1116 245.341 43.2001 246.786 43.4065C248.231 43.5834 249.587 43.9668 250.855 44.4976C252.123 45.0283 253.214 45.7655 254.04 46.7092C254.895 47.6528 255.308 48.9208 255.308 50.4542V53.3735L238.058 55.9979C236.052 56.2338 234.047 56.6761 232.013 57.2659C229.978 57.8557 228.15 58.7108 226.498 59.8019C224.847 60.893 223.49 62.2494 222.429 63.8713C221.367 65.4931 220.837 67.5278 220.837 69.9753C220.837 72.4228 221.367 74.369 222.37 76.0204C223.402 77.6717 224.729 79.0281 226.351 80.0897C227.973 81.1513 229.83 81.918 231.895 82.4193C233.959 82.9206 236.023 83.186 238.087 83.186C240.033 83.186 241.891 82.9206 243.719 82.3898C245.518 81.859 247.228 81.0923 248.791 80.0897C250.354 79.0871 251.711 77.8486 252.831 76.3742C253.952 74.8998 254.807 73.1895 255.367 71.2728V82.0359L262.857 82.0064L262.798 75.7255ZM253.745 69.0022C252.713 70.6535 251.386 72.01 249.764 73.0715C248.143 74.1331 246.314 74.8998 244.25 75.3716C242.186 75.8434 240.151 76.0793 238.146 76.0793C237.143 76.0793 236.111 75.9614 235.05 75.755C233.988 75.5485 233.015 75.1947 232.101 74.7229C231.187 74.2511 230.45 73.6023 229.83 72.8061C229.241 71.9805 228.946 71.0074 228.946 69.7984C228.946 68.5893 229.241 67.5573 229.801 66.6726C230.361 65.7585 231.069 64.9918 231.954 64.3136C232.838 63.6648 233.782 63.134 234.843 62.7802C235.905 62.3968 236.937 62.1315 237.94 61.925L255.279 59.0352V63.0751C255.279 65.3751 254.777 67.3508 253.745 69.0022Z" fill="#F6F3FF"/>
<path d="M422.093 37.6858V45.1168C423.39 43.1411 425.042 41.4013 427.076 39.9269C429.082 38.4525 431.116 37.6858 433.151 37.6858H443V44.8514H432.974C429.494 44.8514 426.899 46.2079 425.13 48.8913C423.361 51.5747 422.476 55.1722 422.476 59.6249V82.0064H414.485V37.6858H422.093Z" fill="#F6F3FF"/>
<path d="M401.599 75.7255V50.3067C401.599 47.6823 400.979 45.4707 399.741 43.7014C398.502 41.9321 396.881 40.4872 394.964 39.4256C393.018 38.364 390.895 37.6268 388.594 37.1845C386.294 36.7422 384.024 36.5358 381.842 36.5358C379.66 36.5358 377.3 36.8306 375 37.3909C372.7 37.9512 370.636 38.8358 368.808 40.0743C367.009 41.2834 365.505 42.8462 364.355 44.763C363.205 46.6797 362.615 48.9208 362.615 51.5747H369.81C370.223 48.3605 371.432 46.1784 373.438 44.9989C375.59 43.7604 378.333 43.1116 381.635 43.1116C382.815 43.1116 384.142 43.2001 385.587 43.4065C387.032 43.5834 388.388 43.9668 389.656 44.4976C390.924 45.0283 392.015 45.7655 392.841 46.7092C393.696 47.6528 394.109 48.9208 394.109 50.4542V53.3735L376.858 55.9979C374.853 56.2338 372.848 56.6761 370.813 57.2659C368.778 57.8557 366.95 58.7108 365.299 59.8019C363.647 60.893 362.291 62.2494 361.229 63.8713C360.168 65.4931 359.637 67.5278 359.637 69.9753C359.637 72.4228 360.168 74.369 361.17 76.0204C362.203 77.6717 363.53 79.0281 365.151 80.0897C366.773 81.1513 368.631 81.918 370.695 82.4193C372.759 82.9206 374.823 83.186 376.888 83.186C378.834 83.186 380.692 82.9206 382.52 82.3898C384.319 81.859 386.029 81.0923 387.592 80.0897C389.155 79.0871 390.511 77.8486 391.632 76.3742C392.752 74.8998 393.607 73.1895 394.168 71.2728V82.0359L401.658 82.0064L401.599 75.7255ZM392.575 69.0022C391.543 70.6535 390.216 72.01 388.594 73.0715C386.973 74.1331 385.144 74.8998 383.08 75.3716C381.016 75.8434 378.981 76.0793 376.976 76.0793C375.974 76.0793 374.941 75.9614 373.88 75.755C372.818 75.5485 371.845 75.1947 370.931 74.7229C370.017 74.2511 369.28 73.6023 368.66 72.8061C368.071 71.9805 367.776 71.0074 367.776 69.7984C367.776 68.5893 368.071 67.5573 368.631 66.6726C369.191 65.7585 369.899 64.9918 370.784 64.3136C371.668 63.6648 372.612 63.134 373.673 62.7802C374.735 62.3968 375.767 62.1315 376.77 61.925L394.109 59.0352V63.0751C394.109 65.3751 393.578 67.3508 392.575 69.0022Z" fill="#F6F3FF"/>
<path d="M156.641 37.7743L151.333 23.679L151.245 23.4431H138.417L124.027 61.9545L123.585 63.1046L116.596 81.8295L116.537 81.9475H125.177L126.71 77.8486L127.448 75.8729C127.831 74.6049 128.008 73.2485 128.008 71.8625C128.008 70.2997 127.742 68.7663 127.271 67.3803C126.828 66.0239 126.18 64.7559 125.354 63.6059C128.627 64.3431 131.753 64.3136 131.753 64.3136H157.761L164.249 81.9475H173.154L156.641 37.7743ZM134.348 57.6493L144.846 29.3997L153.22 51.8991L155.343 57.6198H134.348V57.6493Z" fill="#F6F3FF"/>
<path d="M92.8581 36.8896C90.0862 31.9356 84.8078 28.6035 78.7333 28.6035H78.0845C77.9666 28.6035 77.8191 28.6035 77.7012 28.633C77.1114 28.6625 76.5217 28.7509 75.9614 28.8394C75.8729 28.8394 75.7845 28.8689 75.696 28.8984C75.6075 28.8984 75.5486 28.9278 75.4601 28.9278C74.369 29.1343 73.3664 29.4586 72.4523 29.8715L72.1574 30.0189C72.0984 30.0484 72.069 30.0779 72.01 30.0779L60.3917 35.3268L43.8783 3.24369L42.227 0L37.4499 9.28876L32.4074 19.1083L36.5653 27.1586C39.4256 32.7908 45.1758 36.7422 51.8106 37.0371C54.3171 37.155 56.7056 36.8012 58.8878 36.005C27.247 50.2772 22.234 52.2824 18.489 46.0899L0 82.0359L67.4098 53.0491C65.5226 54.3466 63.8418 56.0274 62.5148 58.0916C58.9173 63.6648 58.9762 70.8894 61.8956 76.4922L64.7559 82.0654H84.4245L69.1201 52.3414C81.0039 47.24 88.9362 43.8193 95.6005 46.0604C96.4851 46.3553 98.3134 47.4759 98.3134 47.4759L92.8581 36.8896Z" fill="#F6F3FF"/>
</svg>
