<svg width="65" height="72" viewBox="0 0 65 72" fill="none" xmlns="http://www.w3.org/2000/svg">
<path d="M10.5044 61.4956H0V71.9964H10.5044V61.4956Z" fill="#6600CC"/>
<path d="M64.1965 34.1111V71.9928H53.6921V44.6154C53.6921 38.8176 58.3986 34.1111 64.1965 34.1111Z" fill="#6600CC"/>
<path d="M10.5044 71.9928H3.91006e-05L3.91006e-05 34.1111C5.7979 34.1111 10.5044 38.8176 10.5044 44.6154L10.5044 71.9928Z" fill="#6600CC"/>
<path d="M0 21.625V34.1111L32.1521 13.447V0.953796L0 21.625Z" fill="#6600CC"/>
<path d="M64.3042 21.625V34.1111L32.1521 13.447V0.953796L64.3042 21.625Z" fill="#6600CC"/>
<path d="M42.6026 45.1252H32.0983V72H42.6026V45.1252Z" fill="#6600CC"/>
<path d="M21.0087 71.9964V61.492H10.5044V71.9964H21.0087Z" fill="#6600CC"/>
<path d="M39.3895 61.492V71.9964H53.6993V61.492H39.3895Z" fill="#6600CC"/>
</svg>
